<svg width="36" height="36" viewBox="0 0 36 36" fill="none" xmlns="http://www.w3.org/2000/svg">
<path d="M18 22.9502C16.6573 22.9502 15.3697 22.4168 14.4203 21.4674C13.4709 20.518 12.9375 19.2304 12.9375 17.8877C12.9375 16.545 13.4709 15.2574 14.4203 14.308C15.3697 13.3586 16.6573 12.8252 18 12.8252C19.3427 12.8252 20.6303 13.3586 21.5797 14.308C22.5291 15.2574 23.0625 16.545 23.0625 17.8877C23.0625 19.2304 22.5291 20.518 21.5797 21.4674C20.6303 22.4168 19.3427 22.9502 18 22.9502Z" fill="white"/>
<path fill-rule="evenodd" clip-rule="evenodd" d="M11.43 2.36259C12.7665 2.29284 14.9625 2.25684 18 2.25684C21.0375 2.25684 23.2425 2.29284 24.57 2.36259C25.7512 2.40534 26.9325 2.60559 28.0575 2.96109C29.2072 3.37059 30.2512 4.03209 31.1175 4.89609C31.9837 5.76009 32.6407 6.80409 33.0502 7.95609C33.4064 9.09527 33.6195 10.2743 33.6847 11.4661C33.7297 12.7778 33.7545 14.9536 33.7545 18.0136C33.7545 21.0736 33.7185 23.2561 33.6487 24.5836C33.6031 25.7673 33.4019 26.9399 33.0502 28.0711C32.6389 29.2213 31.9776 30.2659 31.1138 31.1297C30.2501 31.9934 29.2054 32.6548 28.0552 33.0661C26.924 33.4177 25.7514 33.619 24.5677 33.6646C23.2282 33.7351 21.0382 33.7703 17.9977 33.7703C13.437 33.7703 12.7552 33.7343 11.4277 33.6646C10.2381 33.6213 9.06207 33.3967 7.94022 32.9986C6.78495 32.6333 5.73512 31.9942 4.88022 31.1356C4.01561 30.2722 3.35455 29.2268 2.94522 28.0756C2.59357 26.9444 2.39234 25.7718 2.34672 24.5881C2.27622 23.2486 2.24097 21.0586 2.24097 18.0181C2.24097 13.4573 2.27697 12.7756 2.34672 11.4481C2.38947 10.2668 2.58972 9.08559 2.94522 7.96059C3.35511 6.8096 4.01599 5.76424 4.87993 4.9003C5.74387 4.03636 6.78923 3.37548 7.94022 2.96559C9.07142 2.61394 10.244 2.41271 11.4277 2.36709L11.43 2.36259ZM25.3575 7.92009C25.7359 7.6678 26.1904 7.55518 26.6429 7.60157C27.0954 7.64797 27.5176 7.85049 27.837 8.17434C28.2059 8.54174 28.4153 9.03969 28.4197 9.56034C28.3802 10.0801 28.1615 10.5699 27.801 10.9463C27.6298 11.1334 27.4211 11.2823 27.1885 11.3831C26.9558 11.4839 26.7045 11.5344 26.451 11.5313C26.1922 11.5339 25.9357 11.4833 25.6973 11.3827C25.4588 11.2821 25.2436 11.1335 25.065 10.9463C24.8583 10.7419 24.6997 10.494 24.6008 10.2206C24.5018 9.94728 24.4651 9.65531 24.4931 9.36594C24.5211 9.07658 24.6132 8.79709 24.7627 8.54777C24.9122 8.29846 25.1154 8.08557 25.3575 7.92459V7.92009ZM14.085 11.1826C15.2772 10.4788 16.6381 10.1118 18.0225 10.1206C19.4069 10.1118 20.7677 10.4788 21.96 11.1826C23.1525 11.8733 24.1447 12.8656 24.84 14.0626C25.5352 15.2596 25.902 16.6276 25.902 18.0001C25.8943 20.0875 25.0616 22.0872 23.5856 23.5632C22.1096 25.0392 20.1099 25.8719 18.0225 25.8796C15.9355 25.8713 13.9363 25.0384 12.4608 23.5624C10.9852 22.0865 10.1529 20.0871 10.1452 18.0001C10.1452 16.6163 10.512 15.2551 11.205 14.0626C11.898 12.8701 12.888 11.8778 14.085 11.1826Z" fill="white"/>
</svg>
