<svg width="302" height="57" viewBox="0 0 302 57" fill="none" xmlns="http://www.w3.org/2000/svg">
<path d="M263.388 50.8822V49.2443L270.061 48.5163H272.002L278.857 49.2443V50.8822H263.388ZM268.545 50.8822C268.585 49.9115 268.605 48.5972 268.605 46.939C268.646 45.2809 268.666 43.5621 268.666 41.7827C268.706 40.0032 268.727 38.4462 268.727 37.1116V33.5931C268.727 31.4901 268.706 29.6095 268.666 27.9514C268.666 26.2932 268.626 24.716 268.545 23.2196L263.085 22.9163V21.3997L271.82 19.1552L272.609 19.6405L272.973 28.1334V28.194V37.1116C272.973 38.4462 272.973 40.0032 272.973 41.7827C273.014 43.5621 273.034 45.2809 273.034 46.939C273.074 48.5972 273.115 49.9115 273.155 50.8822H268.545Z" fill="#9795F0"/>
<path d="M272.973 31.5912L271.76 28.4974H272.73M263.388 50.8822V49.2443L270.061 48.5163H272.002L278.857 49.2443V50.8822H263.388ZM268.545 50.8822C268.585 49.9115 268.605 48.5972 268.605 46.939C268.646 45.2809 268.666 43.5621 268.666 41.7827C268.706 40.0032 268.727 38.4462 268.727 37.1116V33.5931C268.727 31.4901 268.706 29.6095 268.666 27.9514C268.666 26.2932 268.626 24.716 268.545 23.2196L263.085 22.9163V21.3997L271.82 19.1552L272.609 19.6405L272.973 28.1334V28.194V37.1116C272.973 38.4462 272.973 40.0032 272.973 41.7827C273.014 43.5621 273.034 45.2809 273.034 46.939C273.074 48.5972 273.115 49.9115 273.155 50.8822H268.545Z" stroke="#9795F0"/>
<path d="M292.089 12.8991C303.029 11.9526 301.443 17.8696 299.911 17.633C298.107 17.3541 298.964 16.2112 298.817 15.74C298.671 15.2663 298.566 13.0885 292.089 12.8991Z" fill="#9795F0"/>
<path d="M272.423 31.1405C275.268 26.1265 283.337 13.6563 292.089 12.8991M292.089 12.8991C303.029 11.9526 301.443 17.8696 299.911 17.633C298.107 17.3541 298.964 16.2112 298.817 15.74C298.671 15.2663 298.566 13.0885 292.089 12.8991Z" stroke="#9795F0"/>
<path d="M243.84 17.9834C247.343 17.9834 250.04 18.8263 251.828 20.6084L251.998 20.7763C253.723 22.5397 254.531 25.2941 254.531 28.9179V43.6582C254.531 44.6533 254.586 45.4747 254.691 46.1269C254.796 46.7734 254.945 47.2214 255.115 47.5068C255.505 48.0522 256.016 48.3154 256.7 48.3154C257.152 48.3154 257.531 48.2293 257.852 48.0732C258.206 47.8585 258.614 47.5283 259.076 47.0664L259.441 46.7011L259.795 47.0781L260.704 48.0488L260.968 48.3291L260.764 48.6552C260.117 49.6892 259.306 50.4639 258.326 50.956L258.327 50.957C257.4 51.4428 256.368 51.6806 255.244 51.6806C253.458 51.6806 252.041 51.1025 251.078 49.8974L250.892 49.6474C250.28 48.7734 249.855 47.6865 249.602 46.4013C248.654 47.3564 247.749 48.1898 246.887 48.8984L246.885 48.8994C245.756 49.8188 244.578 50.5154 243.35 50.9814L243.349 50.9804C242.109 51.4909 240.712 51.7412 239.168 51.7412C236.721 51.7411 234.623 51.0422 232.905 49.625L232.9 49.6211C231.187 48.1713 230.357 46.0965 230.357 43.4765C230.357 41.8625 230.72 40.4013 231.454 39.1054L231.598 38.8623C232.342 37.6588 233.471 36.5923 234.958 35.6533L234.963 35.6504L235.274 35.4638C236.857 34.5393 238.878 33.716 241.325 32.9892L242.618 32.6006C243.922 32.2192 245.261 31.8607 246.633 31.5254C247.567 31.2817 248.471 31.0521 249.345 30.8388V28.9179C249.345 26.6379 249.083 24.9591 248.598 23.8388L248.592 23.8252C248.147 22.7144 247.462 21.9706 246.542 21.5459L246.535 21.5429C245.615 21.1011 244.381 20.8642 242.808 20.8642C241.687 20.8643 240.543 21.0377 239.373 21.3886L239.357 21.3925C238.959 21.4987 238.556 21.6317 238.146 21.789L237.229 25.8134C237.095 26.7874 236.762 27.5794 236.152 28.0879L236.148 28.0908C235.598 28.5415 234.912 28.75 234.133 28.75C233.382 28.7499 232.723 28.5614 232.207 28.1357C231.692 27.711 231.376 27.0965 231.218 26.3525L231.192 26.2353L231.224 26.1191L231.36 25.6484C232.087 23.3255 233.49 21.4801 235.559 20.1279L235.979 19.8662C238.112 18.6012 240.742 17.9834 243.84 17.9834ZM249.345 33.3935C248.616 33.5906 247.879 33.794 247.134 34.0068L247.135 34.0078C245.486 34.4902 243.939 34.9912 242.495 35.5127L242.496 35.5136C239.902 36.4713 238.135 37.5642 237.124 38.7617L237.125 38.7627C236.148 39.9275 235.664 41.2503 235.664 42.749C235.664 44.5094 236.158 45.7715 237.074 46.6211L237.262 46.7802C238.22 47.5508 239.45 47.9511 240.988 47.9511C241.852 47.9511 242.72 47.7824 243.597 47.4394L243.929 47.2988C244.718 46.9413 245.615 46.3708 246.622 45.5722L247.065 45.2138C247.757 44.645 248.517 43.9754 249.345 43.205V33.3935Z" fill="#9795F0" stroke="#9795F0"/>
<path d="M224.011 21.4936H219.578V43.3784C219.578 45.2346 219.916 46.4942 220.501 47.2543C221.236 48.1105 221.924 48.8227 223.038 48.8227C223.264 48.8227 223.413 48.8163 223.581 48.7866C223.75 48.7564 223.954 48.6989 224.28 48.5844C224.608 48.449 224.669 48.4148 224.74 48.3705C224.843 48.3057 224.982 48.2063 225.403 47.975L225.438 47.9555L225.475 47.9428L227.845 47.0932L229.647 46.4477L228.391 47.892C227.981 48.3637 227.363 49.0421 226.701 49.6674C226.133 50.2031 225.495 50.7372 224.906 51.0502L224.657 51.1703C224.092 51.4124 223.696 51.5686 223.292 51.6577C222.884 51.7477 222.488 51.7641 221.928 51.7641C219.38 51.764 217.4 51.0947 216.098 49.6586L216.092 49.6528C214.847 48.2299 214.27 46.1271 214.27 43.4389V40.9379L214.271 40.9252C214.311 40.1682 214.331 39.2676 214.331 38.2221V21.4936H209.504V19.1948L209.977 19.1694L214.505 18.9194L215.915 9.87543L215.98 9.45258H219.895L219.88 9.96722L219.616 18.9809L223.536 19.1684L224.011 19.1918V21.4936Z" fill="#9795F0" stroke="#9795F0"/>
<path d="M194.535 4.71326C196.915 4.71326 198.974 5.01998 200.699 5.6488L201.348 5.8783C202.853 6.44195 204.277 7.19696 205.621 8.14099L205.84 8.29529L205.833 8.56384L205.59 16.9359L205.576 17.4213H202.181L202.11 17.0052L200.818 9.40466C200.264 9.09289 199.731 8.8425 199.217 8.65564L199.205 8.65076C197.941 8.15288 196.448 7.89689 194.717 7.89685C191.969 7.89685 189.712 8.56327 187.913 9.86462C186.203 11.1299 185.329 12.9894 185.329 15.5258C185.329 17.7616 185.979 19.5052 187.24 20.809L187.5 21.0551C188.83 22.273 190.585 23.3516 192.78 24.2826L195.509 25.3744L195.512 25.3754L196.642 25.849C199.206 26.9549 201.274 28.0696 202.834 29.1947L203.165 29.4379C204.782 30.6629 205.968 32.0166 206.693 33.5062L206.832 33.806C207.505 35.3188 207.834 37.0759 207.834 39.0638C207.834 41.6232 207.162 43.8887 205.804 45.8402C204.573 47.6265 202.881 49.0133 200.746 50.0062L200.313 50.1996L200.306 50.2025C197.969 51.1623 195.274 51.6351 192.23 51.6351C189.836 51.6351 187.563 51.3274 185.413 50.7094L184.985 50.5814C182.731 49.8848 180.864 49.0587 179.398 48.0951L179.163 47.9408L179.172 47.6605L179.476 38.8041L179.493 38.3207H182.764L182.834 38.7367L184.187 46.7064C185.037 47.1914 185.83 47.5586 186.568 47.8109H186.567C188.08 48.3149 189.884 48.5726 191.987 48.5726C195.229 48.5726 197.807 47.8413 199.761 46.4232C201.714 44.9956 202.709 42.8933 202.709 40.0336C202.709 38.7794 202.502 37.695 202.1 36.7689L201.917 36.3822C201.399 35.3847 200.517 34.4518 199.232 33.5951L199.225 33.5902L199.217 33.5853C197.968 32.6877 196.21 31.7745 193.923 30.8519H193.922L191.375 29.8207L191.372 29.8197C187.812 28.3468 185.072 26.5921 183.187 24.5394L183.183 24.5355C181.271 22.4108 180.325 19.7589 180.325 16.6176C180.325 13.9896 180.952 11.7765 182.242 10.014L182.243 10.0121L182.494 9.68396C183.772 8.07131 185.421 6.85159 187.429 6.02478L187.432 6.0238L187.841 5.86462C189.898 5.09539 192.13 4.71328 194.535 4.71326Z" fill="#9795F0" stroke="#9795F0"/>
<path d="M92.5786 17.9834C95.2095 17.9834 97.697 18.6105 100.034 19.8623C102.387 21.123 104.29 23.0314 105.747 25.5664L106.022 26.0468C107.351 28.4833 108.001 31.4497 108.001 34.9228C108.001 38.6278 107.261 41.7567 105.747 44.2802L105.746 44.2793C104.288 46.7752 102.386 48.6628 100.034 49.9228L100.031 49.9248C97.7324 51.1366 95.2457 51.7412 92.5786 51.7412C89.9507 51.7412 87.4651 51.1363 85.1294 49.9267L85.1235 49.9228C82.7699 48.6619 80.8652 46.7729 79.4077 44.2744L79.4048 44.2695C77.9761 41.7483 77.2769 38.6234 77.2769 34.9228C77.2769 31.2202 77.9969 28.0936 79.4683 25.5713L79.4692 25.5693L79.7554 25.1015C81.2088 22.7972 83.0373 21.0448 85.2446 19.8623L85.6841 19.6357C87.8856 18.5363 90.1854 17.9834 92.5786 17.9834ZM92.5786 20.8642C89.8117 20.8643 87.6034 21.9142 85.9155 24.0371L85.5845 24.4765C83.8482 26.9074 82.9478 30.3891 82.9478 34.9834C82.9478 39.577 83.848 43.036 85.5806 45.4248L85.9106 45.8486C87.5964 47.9015 89.8053 48.9218 92.5786 48.9218C95.5783 48.9218 97.913 47.7603 99.6353 45.4277L99.7954 45.2002C101.425 42.821 102.27 39.4352 102.27 34.9834C102.27 30.5323 101.425 27.1256 99.7935 24.707L99.6333 24.4765C97.9081 22.0612 95.5731 20.8642 92.5786 20.8642Z" fill="#9795F0" stroke="#9795F0"/>
<path d="M39.2686 0C39.1605 2.54636 37.5165 7.63909 31.8057 7.63909C34.2933 7.95738 39.2686 10.0979 39.2686 16.1137C39.4329 13.4325 40.7119 8.20627 46.4795 7.68179C43.5004 7.649 39.2686 6.12589 39.2686 0Z" fill="#9795F0"/>
<path d="M54.3076 17.1171V30.5029H57.5078C60.6611 30.5029 63.1469 30.0432 64.9961 29.1572C66.8952 28.2262 68.2435 26.9615 69.0762 25.372L69.0811 25.3642L69.2412 25.0576C70.0196 23.5144 70.4141 21.759 70.4141 19.7802C70.4141 16.3504 69.4901 13.8307 67.7178 12.1337L67.71 12.1259C65.9832 10.3993 63.1873 9.48236 59.2061 9.48236H54.3994C54.3688 12.0041 54.3382 14.5491 54.3076 17.1171ZM61.3447 51.5214H42.2061V48.8056L42.6611 48.7646L48.5723 48.2353C48.6146 45.8076 48.6367 43.3798 48.6367 40.9521V17.1113C48.6367 14.6472 48.6139 12.2044 48.5713 9.78314L42.665 9.29877L42.2061 9.26068V6.54095H59.6914C65.0864 6.54095 69.1928 7.70312 71.9111 10.122L72.1631 10.3505C74.7066 12.7321 75.4336 15.9232 75.4336 19.7802C75.4336 22.3378 74.7669 24.7004 73.4629 26.8036C72.8494 27.8056 72.2931 28.5992 71.5371 29.2919C70.7792 29.9863 69.845 30.557 68.502 31.1562L68.4961 31.1591C65.7616 32.337 63.3167 32.4902 58.1084 32.4902H54.3076V41.0673L54.3945 48.2109L60.8867 48.7646L61.3447 48.8036V51.5214Z" fill="#9795F0" stroke="#9795F0"/>
<path d="M143.509 26.5249C143.414 28.7717 141.969 33.2653 136.95 33.2653C139.136 33.5461 143.509 35.4348 143.509 40.7429C143.653 38.3771 144.777 33.7657 149.845 33.3029C147.227 33.274 143.509 31.9301 143.509 26.5249Z" fill="#9795F0"/>
<path d="M144.419 17.9834C147.115 17.9834 149.45 18.5636 151.401 19.748H151.402C153.382 20.8854 154.886 22.4505 155.901 24.4365L156.093 24.8105C157.018 26.696 157.477 28.7963 157.477 31.1015C157.477 31.5535 157.477 32.1473 157.431 32.7197C157.385 33.2766 157.29 33.8849 157.064 34.333L156.927 34.6074H135.215C135.237 37.7288 135.713 40.2617 136.619 42.2285H136.62C137.593 44.253 138.902 45.7264 140.538 46.6797L141.174 47.0224C142.653 47.7879 144.115 48.2998 145.955 48.2998C148.025 48.2998 149.854 47.859 151.363 47.1631L151.658 47.0146C153.163 46.2147 155.094 44.5908 156.239 43.2607L156.389 43.0869H158.495L157.983 43.8623C156.633 45.9077 154.498 48.432 152.381 49.7021L152.375 49.706L152.124 49.2734L152.374 49.706C150.335 50.8886 148.369 51.9061 145.481 51.9062C142.689 51.9062 139.594 51.5477 137.198 50.458L136.729 50.2295C134.441 49.0461 132.618 47.2893 131.263 44.9736L130.998 44.5029C129.614 41.9444 128.936 38.8041 128.936 35.1054C128.936 31.6403 129.637 28.6205 131.062 26.0654L131.062 26.0634L131.341 25.5869C132.755 23.2425 134.561 21.4148 136.759 20.1181L137.201 19.8603C139.423 18.6097 141.832 17.9834 144.419 17.9834ZM144.298 20.9248C142.634 20.9248 141.123 21.4509 139.752 22.5175L139.745 22.5234C138.378 23.5486 137.275 25.0636 136.451 27.1025L136.449 27.1064C135.831 28.6086 135.441 30.3579 135.288 32.3603H149.394C150.424 32.3603 150.932 32.0918 151.157 31.7412L151.259 31.5586C151.484 31.0976 151.624 30.3775 151.624 29.3418C151.624 26.8457 150.962 24.8431 149.676 23.292L149.673 23.2871C148.406 21.7218 146.636 20.9248 144.298 20.9248Z" fill="#9795F0" stroke="#9795F0"/>
<path d="M126.75 53.8917H109.978V51.298L110.431 51.256L115.671 50.7667C115.677 50.2469 115.68 49.706 115.68 49.1447V49.132L115.707 47.9445C115.729 46.7499 115.741 45.5324 115.741 44.2921V44.2804L115.787 41.8439C115.797 41.0674 115.801 40.3266 115.801 39.6212V8.797L110.82 8.57532L110.342 8.55383V6.02356L110.75 5.94641L119.789 4.24817L119.975 4.21301L120.138 4.31067L121.048 4.85657L121.296 5.00598L121.291 5.29504L121.109 14.6368V44.2921C121.149 45.9452 121.169 47.5585 121.169 49.132L121.216 50.7775L126.297 51.256L126.75 51.298V53.8917Z" fill="#9795F0" stroke="#9795F0"/>
<path d="M78.0137 6.05233C78.2507 7.47415 77.0659 7.0002 77.0659 6.76323C77.0659 5.92422 76.0668 5.34142 74.5521 6.76323C75.393 5.29933 77.8625 5.14459 78.0137 6.05233Z" fill="#9795F0"/>
<path d="M111.426 8.2941L113.559 5.68744C107.635 6.63531 104.819 7.90732 101.216 8.50761C104.629 8.06015 109.299 8.33832 111.426 8.2941Z" fill="#9795F0"/>
<path d="M113.559 5.68744L113.946 6.00405L114.779 4.98587L113.48 5.19372L113.559 5.68744ZM75.4071 10.5547L75.6977 10.1478L75.4071 10.5547ZM78.0137 6.05233L78.5069 5.97013L78.0137 6.05233ZM111.426 8.2941L111.436 8.79399C111.583 8.79095 111.72 8.72397 111.813 8.61072L111.426 8.2941ZM99.1039 8.8493L99.1814 9.34326L99.1039 8.8493ZM78.0137 6.05233L77.5205 6.13453C77.5718 6.44192 77.5281 6.55387 77.5206 6.56863C77.5196 6.57049 77.5268 6.55743 77.5461 6.54497C77.5633 6.5338 77.5754 6.53267 77.5735 6.53289C77.5599 6.53439 77.5183 6.52931 77.477 6.50796C77.4583 6.49825 77.4604 6.49563 77.4749 6.51058C77.4825 6.51841 77.5014 6.53912 77.5202 6.57439C77.5387 6.60895 77.5659 6.67431 77.5659 6.76323H77.0659H76.5659C76.5659 6.98861 76.6945 7.14236 76.7578 7.2075C76.8362 7.28817 76.929 7.35034 77.0176 7.39617C77.1911 7.48591 77.4309 7.55488 77.6839 7.52677C77.9616 7.49592 78.2466 7.34479 78.4106 7.0245C78.5586 6.73564 78.5742 6.37365 78.5069 5.97013L78.0137 6.05233ZM75.4071 10.5547L75.6977 10.1478C74.922 9.59375 74.6132 9.11155 74.5342 8.67465C74.4537 8.22927 74.588 7.70459 74.9857 7.01228L74.5521 6.76323L74.1186 6.51418C73.6753 7.28578 73.4077 8.06441 73.5502 8.85257C73.6942 9.64921 74.2334 10.3308 75.1165 10.9616L75.4071 10.5547ZM74.5521 6.76323L74.9857 7.01228C75.3066 6.45362 75.9713 6.10694 76.6138 6.01317C76.931 5.96687 77.1961 5.99019 77.3666 6.04806C77.4501 6.0764 77.4929 6.10684 77.511 6.12402C77.5151 6.12801 77.5177 6.13101 77.5192 6.13286C77.5199 6.1338 77.5204 6.13448 77.5206 6.13491C77.5209 6.13534 77.521 6.13556 77.5211 6.13558C77.5211 6.1356 77.521 6.13549 77.5209 6.13526C77.5208 6.13503 77.5207 6.13476 77.5206 6.13449C77.5204 6.13386 77.5204 6.13377 77.5205 6.13453L78.0137 6.05233L78.5069 5.97013C78.4267 5.48843 78.0448 5.22224 77.688 5.10113C77.3266 4.97845 76.8935 4.96176 76.4693 5.02365C75.629 5.1463 74.6386 5.60894 74.1186 6.51418L74.5521 6.76323ZM77.0659 6.76323H77.5659C77.5659 6.13558 77.1735 5.54072 76.4588 5.42216C75.7932 5.31173 75.0131 5.64469 74.2099 6.39868L74.5521 6.76323L74.8943 7.12778C75.6058 6.45996 76.0826 6.37341 76.2952 6.40868C76.4588 6.43582 76.5659 6.55187 76.5659 6.76323H77.0659ZM113.559 5.68744L113.172 5.37082L111.039 7.97748L111.426 8.2941L111.813 8.61072L113.946 6.00405L113.559 5.68744ZM99.1039 8.8493L99.0264 8.35534C93.4611 9.22844 88.2512 10.1446 84.0757 10.5984C81.9893 10.8252 80.184 10.9336 78.7382 10.8667C77.2705 10.7987 76.264 10.5523 75.6977 10.1478L75.4071 10.5547L75.1165 10.9616C75.9325 11.5444 77.1918 11.7961 78.692 11.8656C80.2142 11.9361 82.079 11.8213 84.1838 11.5926C88.3906 11.1354 93.6468 10.2115 99.1814 9.34326L99.1039 8.8493ZM113.559 5.68744L113.48 5.19372C110.493 5.67155 108.29 6.23142 106.387 6.74515C104.479 7.2602 102.905 7.71939 101.134 8.01441L101.216 8.50761L101.299 9.0008C103.13 8.69553 104.765 8.21858 106.647 7.71059C108.534 7.20127 110.7 6.6512 113.638 6.18116L113.559 5.68744ZM101.216 8.50761L101.281 9.00336C104.662 8.56016 109.235 8.83974 111.436 8.79399L111.426 8.2941L111.416 7.79421C109.362 7.83689 104.597 7.56014 101.151 8.01185L101.216 8.50761ZM101.216 8.50761L101.151 8.01185C100.375 8.11357 99.6464 8.22885 99.0043 8.35931L99.1039 8.8493L99.2034 9.33929C99.8156 9.21491 100.52 9.10315 101.281 9.00336L101.216 8.50761ZM101.216 8.50761L101.134 8.01441C100.439 8.13025 99.7354 8.24411 99.0264 8.35534L99.1039 8.8493L99.1814 9.34326C99.8936 9.23153 100.6 9.11716 101.299 9.0008L101.216 8.50761Z" fill="#9795F0"/>
<path d="M26.6036 38.3452L24.9306 38.6836L24.5681 40.6272L28.3136 42.0309L26.6036 38.3452Z" fill="#9795F0"/>
<path d="M23.2391 23.2227L21.0993 33.6086L20.6454 35.1203L19.0667 35.5264L10.4785 37.0639L19.0667 38.3452L20.6454 38.6836L21.2012 40.6272L23.2391 51.1847L24.5681 40.6272L24.9306 38.6836L26.6036 38.3452L36.0709 37.0639L26.6036 35.5264L24.9306 35.1203L24.6346 33.6086L23.2391 23.2227Z" fill="#9795F0"/>
<path d="M20.6454 35.1203L21.0993 33.6086L17.2624 31.557L19.0667 35.5264L20.6454 35.1203Z" fill="#9795F0"/>
<path d="M24.6346 33.6086L24.9306 35.1203L26.6036 35.5264L28.3136 31.557L24.6346 33.6086Z" fill="#9795F0"/>
<path d="M20.6454 38.6836L19.0667 38.3452L17.2624 42.0309L21.2012 40.6272L20.6454 38.6836Z" fill="#9795F0"/>
<path d="M2.9676 38.9422C0.84747 39.1261 0.855151 36.4133 1.12401 35.0339C1.12401 34.7 1.13397 34.3654 1.15376 34.0303C1.20932 35.775 4.29116 33.5562 5.38731 35.3787C6.07866 36.5282 5.61777 38.7123 2.9676 38.9422Z" fill="#9795F0"/>
<path d="M116.302 56.2982L22.2102 56.2996C24.7835 56.7594 31.4512 55.8398 37.535 48.483C45.1398 39.287 41.5634 19.6987 26.243 16.6419C11.3773 13.6758 1.98376 23.7277 1.18009 33.6545M1.18009 33.6545C1.15865 33.7966 1.15029 33.9212 1.15376 34.0303M1.18009 33.6545C1.16994 33.7798 1.16116 33.9051 1.15376 34.0303M1.15376 34.0303C1.13397 34.3654 1.12401 34.7 1.12401 35.0339C0.855151 36.4133 0.84747 39.1261 2.9676 38.9422C5.61777 38.7123 6.07866 36.5282 5.38731 35.3787C4.29116 33.5562 1.20932 35.775 1.15376 34.0303Z" stroke="#9795F0" stroke-width="0.7"/>
<path d="M293.416 48.3837C292.468 48.8576 291.757 48.3838 291.757 47.6726C291.757 46.8295 294.122 46.1044 294.208 48.9421C294.083 48.2514 293.628 48.2821 293.416 48.3837Z" fill="#9795F0"/>
<path d="M263.084 56.4306H284.403C287.092 56.5129 292.753 55.5873 293.89 51.2271C294.136 50.2855 294.226 49.5348 294.208 48.9421M294.208 48.9421C294.122 46.1044 291.757 46.8295 291.757 47.6726C291.757 48.3838 292.468 48.8576 293.416 48.3837C293.628 48.2821 294.083 48.2514 294.208 48.9421Z" stroke="#9795F0" stroke-width="0.7"/>
</svg>
