<svg width="302" height="161" viewBox="0 0 302 161" fill="none" xmlns="http://www.w3.org/2000/svg">
<path d="M247.468 152.687V150.356L256.966 149.319H259.729L269.485 150.356V152.687H247.468ZM254.807 152.687C254.865 151.305 254.894 149.435 254.894 147.075C254.951 144.715 254.98 142.268 254.98 139.736C255.037 137.203 255.066 134.987 255.066 133.088V128.08C255.066 125.087 255.037 122.41 254.98 120.05C254.98 117.69 254.922 115.446 254.807 113.316L247.037 112.884V110.726L259.47 107.531L260.592 108.222L261.11 120.309V120.396V133.088C261.11 134.987 261.11 137.203 261.11 139.736C261.168 142.268 261.196 144.715 261.196 147.075C261.254 149.435 261.311 151.305 261.369 152.687H254.807Z" fill="white"/>
<path d="M261.11 125.231L259.383 120.827H260.765M247.468 152.687V150.356L256.966 149.319H259.729L269.485 150.356V152.687H247.468ZM254.807 152.687C254.865 151.305 254.894 149.435 254.894 147.075C254.951 144.715 254.98 142.268 254.98 139.736C255.037 137.203 255.066 134.987 255.066 133.088V128.08C255.066 125.087 255.037 122.41 254.98 120.05C254.98 117.69 254.922 115.446 254.807 113.316L247.037 112.884V110.726L259.47 107.531L260.592 108.222L261.11 120.309V120.396V133.088C261.11 134.987 261.11 137.203 261.11 139.736C261.168 142.268 261.196 144.715 261.196 147.075C261.254 149.435 261.311 151.305 261.369 152.687H254.807Z" stroke="white"/>
<path d="M288.317 98.6269C303.888 97.2798 301.63 105.701 299.45 105.364C296.882 104.968 298.101 103.341 297.893 102.67C297.684 101.996 297.535 98.8965 288.317 98.6269Z" fill="white"/>
<path d="M260.328 124.589C264.376 117.453 275.861 99.7046 288.317 98.6269M288.317 98.6269C303.888 97.2798 301.63 105.701 299.45 105.364C296.882 104.968 298.101 103.341 297.893 102.67C297.684 101.996 297.535 98.8965 288.317 98.6269Z" stroke="white"/>
<path d="M219.645 106.075C224.603 106.075 228.379 107.269 230.869 109.753L231.105 109.987C233.505 112.44 234.65 116.293 234.65 121.426V142.406C234.65 143.829 234.729 145.009 234.881 145.952C235.034 146.895 235.256 147.567 235.521 148.006C236.116 148.839 236.908 149.245 237.949 149.245C238.624 149.245 239.202 149.116 239.694 148.873C240.218 148.556 240.814 148.072 241.481 147.406L241.846 147.04L242.2 147.417L243.495 148.799L243.757 149.079L243.553 149.406C242.65 150.85 241.522 151.924 240.166 152.605L240.167 152.606C238.88 153.28 237.447 153.612 235.877 153.613C233.385 153.613 231.435 152.808 230.112 151.152L229.855 150.809C228.943 149.506 228.325 147.854 227.98 145.872C226.532 147.349 225.155 148.626 223.848 149.699L223.846 149.701C222.26 150.994 220.606 151.97 218.885 152.624L218.886 152.625C217.147 153.345 215.18 153.698 212.997 153.698C209.557 153.698 206.62 152.718 204.217 150.736L204.212 150.732C201.832 148.717 200.669 145.829 200.668 142.148C200.668 139.883 201.176 137.839 202.202 136.03L202.402 135.692C203.44 134.013 205.021 132.516 207.118 131.192L207.123 131.188L207.562 130.925C209.648 129.707 212.28 128.61 215.449 127.63L216.135 127.422C217.954 126.859 219.821 126.329 221.737 125.831L223.67 125.343C225.058 124.981 226.399 124.643 227.693 124.328V121.426C227.693 118.17 227.32 115.747 226.612 114.114L226.606 114.1C225.956 112.475 224.945 111.373 223.58 110.742L223.573 110.739C222.224 110.091 220.435 109.752 218.177 109.752C216.763 109.752 215.323 109.944 213.857 110.33L213.227 110.508L213.219 110.51L213.212 110.512C212.604 110.674 211.987 110.878 211.361 111.122L210.036 116.938C209.852 118.316 209.389 119.399 208.569 120.083L208.565 120.086C207.826 120.691 206.901 120.976 205.831 120.976C204.797 120.976 203.912 120.716 203.225 120.15C202.625 119.654 202.218 118.96 201.98 118.106L201.888 117.731L201.863 117.614L201.894 117.498C202.847 113.926 204.879 111.116 207.975 109.092L208.267 108.906C211.314 107.008 215.117 106.075 219.645 106.075ZM227.693 127.52C226.567 127.823 225.427 128.138 224.274 128.467L224.275 128.468C221.925 129.156 219.719 129.87 217.659 130.615L217.66 130.615C213.952 131.984 211.398 133.558 209.925 135.304L209.924 135.303C208.503 136.998 207.798 138.929 207.798 141.112C207.798 143.663 208.517 145.526 209.881 146.786C211.326 148.068 213.213 148.727 215.587 148.727C216.844 148.727 218.106 148.482 219.376 147.985L219.858 147.781C221.003 147.262 222.296 146.439 223.738 145.295L224.371 144.784C225.378 143.956 226.485 142.978 227.693 141.852V127.52Z" fill="white" stroke="white"/>
<path d="M191.213 110.648H184.902V142.007C184.902 144.664 185.385 146.512 186.259 147.649C187.304 148.867 188.341 149.968 190.039 149.968C190.366 149.968 190.592 149.958 190.849 149.912C191.108 149.866 191.415 149.779 191.891 149.612C192.358 149.419 192.458 149.364 192.574 149.291C192.723 149.197 192.916 149.06 193.508 148.735L193.543 148.716L193.58 148.703L196.953 147.494L198.755 146.848L197.499 148.292C196.918 148.961 196.043 149.922 195.107 150.805C194.186 151.675 193.154 152.519 192.26 152.903C191.455 153.248 190.909 153.462 190.356 153.584C189.798 153.707 189.255 153.731 188.46 153.731C184.868 153.731 182.117 152.788 180.319 150.804L180.313 150.797C178.589 148.827 177.772 145.894 177.772 142.093V138.54L177.773 138.528C177.83 137.445 177.858 136.159 177.858 134.668V110.648H170.989V107.788L171.462 107.762L178.078 107.399L180.109 94.3568L180.176 93.934H185.349L185.334 94.4486L184.952 107.486L190.737 107.762L191.213 107.786V110.648Z" fill="white" stroke="white"/>
<path d="M149.473 87.1887C152.845 87.1887 155.752 87.6234 158.179 88.509L158.639 88.6672C160.932 89.4787 163.096 90.5999 165.129 92.0286L165.349 92.1829L165.341 92.4514L164.995 104.366L164.981 104.852H160.533L160.463 104.436L158.606 93.5168C157.778 93.045 156.979 92.669 156.209 92.3889L156.196 92.385C154.367 91.6645 152.216 91.2971 149.731 91.2971C145.785 91.2971 142.526 92.2545 139.923 94.1379C137.426 95.9852 136.158 98.7004 136.158 102.366C136.158 105.595 137.099 108.134 138.942 110.037L139.317 110.392C141.233 112.146 143.754 113.693 146.896 115.026L150.78 116.58L150.784 116.581L151.597 116.917C155.607 118.599 158.8 120.288 161.162 121.991L161.627 122.335C163.91 124.064 165.572 125.967 166.586 128.05C167.662 130.262 168.19 132.873 168.19 135.866C168.19 139.47 167.243 142.651 165.338 145.39C163.494 148.066 160.911 150.108 157.612 151.522L157.605 151.525C154.31 152.878 150.502 153.548 146.191 153.548C142.803 153.548 139.587 153.112 136.548 152.239L135.942 152.058C132.747 151.07 130.11 149.901 128.045 148.544L127.81 148.39L127.819 148.11L128.251 135.504L128.268 135.021H132.541L132.611 135.437L134.554 146.878C135.805 147.598 136.973 148.143 138.062 148.516L138.475 148.648C140.568 149.288 143.023 149.613 145.847 149.613C150.492 149.612 154.207 148.565 157.034 146.514L157.297 146.317C159.967 144.244 161.319 141.246 161.319 137.247C161.319 135.31 160.975 133.642 160.305 132.231L160.166 131.952C159.409 130.493 158.125 129.141 156.275 127.907L156.268 127.903L156.261 127.898C154.464 126.606 151.943 125.3 148.681 123.984V123.983L145.055 122.515L145.051 122.514C140.002 120.425 136.132 117.943 133.477 115.051L133.474 115.047C130.791 112.067 129.46 108.345 129.46 103.92C129.46 100.214 130.343 97.11 132.146 94.6458L132.147 94.6448L132.5 94.1838C134.296 91.9181 136.613 90.2032 139.439 89.0393L139.442 89.0383L140.02 88.8137C142.92 87.7285 146.073 87.1887 149.473 87.1887Z" fill="white" stroke="white"/>
<path d="M129.15 25.8066C132.859 25.8066 136.365 26.6908 139.661 28.4561L140.275 28.7998C143.306 30.57 145.784 33.141 147.71 36.4961L147.907 36.832C149.905 40.3238 150.89 44.6235 150.89 49.7051C150.89 54.9504 149.841 59.3626 147.71 62.9131L147.709 62.9121C145.653 66.4352 142.971 69.0936 139.661 70.8672L139.658 70.8682C136.418 72.5764 132.912 73.4297 129.15 73.4297C125.444 73.4296 121.94 72.576 118.646 70.8701L118.64 70.8672C115.328 69.0927 112.644 66.4329 110.587 62.9072L110.584 62.9023C108.574 59.3541 107.584 54.9461 107.583 49.7051C107.583 44.4618 108.603 40.0514 110.673 36.502L110.674 36.5L111.078 35.8389C113.129 32.5865 115.707 30.12 118.813 28.4561L119.432 28.1357C122.537 26.5851 125.778 25.8067 129.15 25.8066ZM129.15 29.4834C125.014 29.4835 121.731 31.1108 119.26 34.3906L119.024 34.7129C116.517 38.2222 115.232 43.2279 115.232 49.791C115.232 56.3549 116.518 61.3291 119.022 64.7793H119.021C121.515 68.1583 124.875 69.8397 129.15 69.8398C133.486 69.8398 136.875 68.1554 139.368 64.7764C141.87 61.3263 143.156 56.353 143.156 49.791C143.156 43.433 141.949 38.5372 139.594 35.0469L139.364 34.7129C136.868 31.2192 133.48 29.4834 129.15 29.4834Z" fill="white" stroke="white"/>
<path d="M53.276 0C53.1221 3.62413 50.7822 10.8724 42.6543 10.8724C46.1949 11.3254 53.276 14.372 53.276 22.934C53.5098 19.1179 55.3301 11.6796 63.5389 10.9332C59.2989 10.8865 53.276 8.71872 53.276 0Z" fill="white"/>
<path d="M74.4683 24.359V43.6256H79.2349C83.7405 43.6256 87.3141 42.9679 89.9849 41.6881C92.7224 40.3463 94.6781 38.5169 95.8872 36.2086L95.8921 36.2008L96.1245 35.7594C97.2491 33.5301 97.8159 30.9975 97.8159 28.152C97.8158 23.2331 96.4895 19.584 93.9126 17.1168L93.9048 17.109C91.3907 14.595 87.3458 13.2838 81.6528 13.2838H74.6021C74.5577 16.9414 74.5126 20.6331 74.4683 24.359ZM84.4839 73.1178H57.6685V69.6559L58.1235 69.6158L66.7251 68.8453C66.7876 65.3252 66.8208 61.8049 66.8208 58.2848V24.3531C66.8208 20.7803 66.788 17.2389 66.7251 13.7291L58.1274 13.0231L57.6685 12.986V9.52112H82.3433C90.0001 9.52112 95.7853 11.1723 99.5991 14.569H99.5981C103.439 17.9316 104.537 22.5117 104.537 28.152C104.537 31.7526 103.598 35.0753 101.764 38.0338L101.765 38.0348C100.894 39.4572 100.114 40.5673 99.0591 41.5338C98.003 42.5015 96.6958 43.3026 94.7964 44.15L94.7905 44.153C90.9435 45.8101 87.5051 46.0309 80.0903 46.0309H74.4683V58.4518L74.5942 68.8121L84.0269 69.6149L84.4839 69.6539V73.1178Z" fill="white" stroke="white"/>
<path d="M201.637 37.7518C201.502 40.9496 199.445 47.3451 192.303 47.3451C195.414 47.7448 201.637 50.433 201.637 57.9877C201.842 54.6205 203.442 48.0574 210.656 47.3987C206.93 47.3576 201.637 45.4448 201.637 37.7518Z" fill="white"/>
<path d="M202.934 25.8066C206.748 25.8067 210.037 26.6285 212.777 28.2969H212.776C215.556 29.896 217.664 32.0917 219.089 34.8789L219.357 35.4043C220.659 38.0562 221.306 41.0134 221.306 44.2656C221.306 44.9102 221.306 45.747 221.24 46.5518C221.176 47.341 221.044 48.1711 220.742 48.7695L220.604 49.0439H189.62C189.632 53.6085 190.316 57.3195 191.646 60.2012H191.645C193.045 63.1122 194.936 65.242 197.306 66.6221L197.763 66.873C200.041 68.1022 202.266 68.9551 205.119 68.9551C208.096 68.955 210.73 68.3205 212.907 67.3164C215.13 66.2603 218.165 63.7439 219.917 61.709L220.066 61.5352H222.574L222.062 62.3105C220.147 65.2119 217.128 68.774 214.155 70.5576L214.149 70.5615C211.254 72.2406 208.496 73.665 204.444 73.665C200.348 73.665 195.821 73.1199 192.41 71.4658L192.084 71.3018C188.865 69.6369 186.3 67.1659 184.39 63.9023L184.017 63.2393C182.068 59.6365 181.107 55.2032 181.107 49.9639C181.107 45.0609 182.1 40.8005 184.106 37.2012L184.107 37.1982L184.5 36.5264C186.497 33.216 189.044 30.6408 192.141 28.8145L192.763 28.4502C195.893 26.688 199.287 25.8066 202.934 25.8066ZM202.761 29.5693C200.495 29.5693 198.423 30.2424 196.535 31.6006L196.16 31.8818L196.153 31.8867C194.17 33.3742 192.578 35.5659 191.396 38.4951L191.395 38.498C190.481 40.7176 189.917 43.306 189.71 46.2695H210.013C211.506 46.2695 212.322 45.8804 212.701 45.29C213.14 44.6069 213.398 43.4589 213.398 41.7617C213.398 38.17 212.447 35.2677 210.578 33.0146L210.574 33.0107C208.725 30.7266 206.143 29.5694 202.761 29.5693Z" fill="white" stroke="white"/>
<path d="M179.765 73.1166H156.316V69.8304L156.77 69.7875L164.418 69.0746C164.427 68.2755 164.433 67.4413 164.433 66.5726V66.5599L164.47 64.8695C164.502 63.1675 164.519 61.4325 164.519 59.6654V59.6537L164.557 57.8812C164.589 56.1464 164.605 54.5253 164.605 53.0179V8.9447L157.312 8.62048L156.834 8.599V5.37537L157.242 5.29822L170.106 2.88123L170.293 2.84607L170.456 2.94373L171.751 3.72107L172 3.86951L171.994 4.15955L171.735 17.4554V59.6537L171.772 61.4154C171.805 63.1624 171.821 64.8772 171.821 66.5599L171.889 69.0892L179.312 69.7875L179.765 69.8304V73.1166Z" fill="white" stroke="white"/>
<path d="M106.901 4.04695C107.239 6.07053 105.552 5.39601 105.552 5.05874C105.552 3.86462 104.13 3.03516 101.975 5.05874C103.171 2.97525 106.686 2.75501 106.901 4.04695Z" fill="white"/>
<path d="M158.165 8.43138L161.201 4.72148C152.769 6.07053 148.761 7.8809 143.634 8.73525C148.492 8.09842 155.137 8.49431 158.165 8.43138Z" fill="white"/>
<path d="M161.201 4.72148L161.588 5.0381L162.421 4.01991L161.122 4.22776L161.201 4.72148ZM103.191 10.455L103.482 10.0481L103.191 10.455ZM158.165 8.43138L158.176 8.93128C158.322 8.92824 158.46 8.86126 158.552 8.748L158.165 8.43138ZM140.628 9.22156L140.705 9.71552L140.628 9.22156ZM106.901 4.04695L106.408 4.12915C106.484 4.58698 106.428 4.79922 106.388 4.87823C106.363 4.92581 106.343 4.93619 106.298 4.94122C106.228 4.94899 106.127 4.92825 106.04 4.88339C105.999 4.86193 105.982 4.84559 105.983 4.84663C105.984 4.84751 105.997 4.86121 106.012 4.88965C106.027 4.91739 106.052 4.97609 106.052 5.05874H105.552H105.052C105.052 5.29665 105.189 5.46452 105.266 5.54356C105.357 5.63814 105.469 5.71402 105.581 5.77161C105.8 5.88484 106.099 5.96949 106.409 5.9351C106.743 5.89798 107.081 5.71865 107.278 5.3341C107.459 4.98099 107.487 4.51871 107.395 3.96475L106.901 4.04695ZM103.191 10.455L103.482 10.0481C102.355 9.24329 101.867 8.51479 101.741 7.81684C101.613 7.1104 101.832 6.30989 102.408 5.30779L101.975 5.05874L101.541 4.80969C100.92 5.89108 100.567 6.94553 100.757 7.99475C100.948 9.05246 101.667 9.98032 102.901 10.8618L103.191 10.455ZM101.975 5.05874L102.408 5.30779C102.907 4.43934 103.922 3.92139 104.878 3.78182C105.352 3.71261 105.765 3.74441 106.048 3.84048C106.336 3.93812 106.397 4.06093 106.408 4.12915L106.901 4.04695L107.395 3.96475C107.298 3.38699 106.839 3.05286 106.37 2.89355C105.896 2.73267 105.315 2.7075 104.734 2.7923C103.58 2.96074 102.239 3.59466 101.541 4.80969L101.975 5.05874ZM105.552 5.05874H106.052C106.052 4.25353 105.554 3.50823 104.654 3.35884C103.802 3.21758 102.756 3.63931 101.632 4.69419L101.975 5.05874L102.317 5.42329C103.349 4.45459 104.092 4.27926 104.49 4.34536C104.839 4.40334 105.052 4.66983 105.052 5.05874H105.552ZM161.201 4.72148L160.814 4.40486L157.778 8.11477L158.165 8.43138L158.552 8.748L161.588 5.0381L161.201 4.72148ZM140.628 9.22156L140.55 8.7276C132.661 9.96533 124.304 10.9736 117.435 11.3222C114 11.4966 110.95 11.5052 108.522 11.2982C107.308 11.1947 106.26 11.0381 105.402 10.8252C104.539 10.6108 103.901 10.347 103.482 10.0481L103.191 10.455L102.901 10.8618C103.466 11.2655 104.242 11.5676 105.161 11.7958C106.087 12.0256 107.191 12.1884 108.437 12.2946C110.928 12.507 114.029 12.4964 117.486 12.3209C124.403 11.9699 132.797 10.9562 140.705 9.71552L140.628 9.22156ZM161.201 4.72148L161.122 4.22776C156.882 4.90618 153.753 5.70094 151.048 6.43116C148.338 7.1627 146.085 7.82 143.552 8.24205L143.634 8.73525L143.716 9.22845C146.311 8.79615 148.625 8.12109 151.309 7.3966C153.997 6.67079 157.088 5.88583 161.28 5.2152L161.201 4.72148ZM143.634 8.73525L143.699 9.23101C148.524 8.59843 155.074 8.99574 158.176 8.93128L158.165 8.43138L158.155 7.93149C155.201 7.99289 148.459 7.59841 143.569 8.2395L143.634 8.73525ZM143.634 8.73525L143.569 8.2395C142.468 8.38386 141.436 8.54718 140.528 8.73157L140.628 9.22156L140.727 9.71155C141.605 9.53324 142.613 9.37344 143.699 9.23101L143.634 8.73525ZM143.634 8.73525L143.552 8.24205C142.562 8.40703 141.56 8.56919 140.55 8.7276L140.628 9.22156L140.705 9.71552C141.718 9.55661 142.723 9.39395 143.716 9.22845L143.634 8.73525Z" fill="white"/>
<path d="M106.076 124.052L103.695 124.533L103.179 127.299L108.51 129.297L106.076 124.052Z" fill="white"/>
<path d="M101.288 102.528L98.2421 117.31L97.5961 119.462L95.3491 120.04L83.126 122.228L95.3491 124.052L97.5961 124.533L98.3871 127.299L101.288 142.326L103.179 127.299L103.695 124.533L106.076 124.052L119.551 122.228L106.076 120.04L103.695 119.462L103.274 117.31L101.288 102.528Z" fill="white"/>
<path d="M97.5961 119.462L98.2421 117.31L92.7812 114.39L95.3491 120.04L97.5961 119.462Z" fill="white"/>
<path d="M103.274 117.31L103.695 119.462L106.076 120.04L108.51 114.39L103.274 117.31Z" fill="white"/>
<path d="M97.5961 124.533L95.3491 124.052L92.7812 129.297L98.3871 127.299L97.5961 124.533Z" fill="white"/>
<path d="M3.80041 105.113C0.78291 104.851 0.793843 108.712 1.1765 110.676C1.1765 111.151 1.19067 111.627 1.21884 112.104C1.29792 109.621 5.68417 112.779 7.24428 110.185C8.22824 108.549 7.57228 105.44 3.80041 105.113Z" fill="white"/>
<path d="M165.104 80.4109L31.1875 80.4089C34.8501 79.7545 44.3399 81.0633 52.9988 91.534C63.8224 104.622 58.7323 132.502 36.9273 136.852C15.7696 141.074 2.40015 126.767 1.25631 112.639M1.25631 112.639C1.22581 112.437 1.2139 112.259 1.21884 112.104M1.25631 112.639C1.24187 112.46 1.22938 112.282 1.21884 112.104M1.21884 112.104C1.19067 111.627 1.1765 111.151 1.1765 110.676C0.793843 108.712 0.78291 104.851 3.80041 105.113C7.57228 105.44 8.22824 108.549 7.24428 110.185C5.68417 112.779 1.29792 109.621 1.21884 112.104Z" stroke="white" stroke-width="0.7"/>
<path d="M290.206 148.734C288.857 149.408 287.846 148.734 287.846 147.721C287.846 146.521 291.211 145.489 291.333 149.528C291.155 148.545 290.508 148.589 290.206 148.734Z" fill="white"/>
<path d="M247.037 160.186H277.379C281.205 160.303 289.262 158.986 290.881 152.78C291.231 151.44 291.359 150.372 291.333 149.528M291.333 149.528C291.211 145.489 287.846 146.521 287.846 147.721C287.846 148.734 288.857 149.408 290.206 148.734C290.508 148.589 291.155 148.545 291.333 149.528Z" stroke="white" stroke-width="0.7"/>
</svg>
